<?xml version="1.0" standalone="no"?>
<!DOCTYPE svg PUBLIC "-//W3C//DTD SVG 20010904//EN"
 "http://www.w3.org/TR/2001/REC-SVG-20010904/DTD/svg10.dtd">
<svg version="1.0" xmlns="http://www.w3.org/2000/svg"
 width="3264.000000pt" height="3264.000000pt" viewBox="0 0 3264.000000 3264.000000"
 preserveAspectRatio="xMidYMid meet">
<metadata>
Created by potrace 1.16, written by Peter Selinger 2001-2019
</metadata>
<g transform="translate(0.000000,3264.000000) scale(0.100000,-0.100000)"
fill="#000000" stroke="none">
<path d="M16034 29845 c-4 -11 -21 -15 -58 -15 -68 0 -93 -8 -99 -31 -4 -16
-14 -19 -55 -19 -64 0 -98 -13 -105 -39 -5 -19 -13 -21 -75 -21 -63 0 -71 -2
-86 -25 -15 -22 -23 -25 -81 -25 -72 0 -115 -13 -115 -34 0 -10 -18 -15 -71
-18 -59 -3 -75 -8 -89 -26 -13 -16 -30 -22 -62 -23 -74 -2 -103 -12 -106 -36
-3 -20 -10 -22 -75 -25 -64 -3 -73 -6 -82 -25 -9 -20 -17 -23 -75 -23 -69 0
-83 -5 -93 -32 -5 -14 -18 -18 -62 -18 -61 0 -122 -21 -131 -45 -5 -11 -21
-15 -59 -15 -63 0 -105 -14 -105 -34 0 -10 -18 -15 -71 -18 -59 -3 -75 -8 -89
-26 -15 -18 -28 -22 -78 -22 -58 0 -92 -15 -92 -41 0 -5 -20 -9 -44 -9 -74 0
-106 -10 -112 -36 -6 -22 -11 -24 -76 -24 -63 0 -72 -3 -90 -25 -17 -22 -27
-25 -79 -25 -61 0 -97 -12 -112 -36 -5 -9 -27 -14 -55 -15 -67 -1 -96 -11
-107 -37 -9 -19 -17 -22 -72 -22 -74 0 -93 -6 -93 -31 0 -17 -8 -19 -64 -19
-77 0 -96 -6 -96 -31 0 -17 -8 -19 -74 -19 -68 0 -75 -2 -90 -25 -14 -21 -24
-25 -68 -25 -68 0 -125 -18 -131 -41 -4 -16 -15 -19 -70 -19 -63 0 -97 -14
-97 -41 0 -5 -29 -9 -64 -9 -62 0 -96 -14 -96 -41 0 -5 -20 -9 -44 -9 -74 0
-106 -10 -112 -36 -6 -23 -11 -24 -79 -24 -67 0 -74 -2 -89 -25 -14 -22 -24
-25 -74 -25 -62 0 -112 -17 -112 -37 0 -9 -16 -13 -49 -13 -73 0 -113 -11
-118 -32 -4 -14 -15 -18 -48 -18 -71 0 -106 -11 -117 -36 -10 -22 -17 -24 -80
-24 -64 0 -69 -2 -78 -25 -9 -23 -14 -25 -74 -25 -62 0 -96 -14 -96 -41 0 -5
-23 -9 -51 -9 -68 0 -131 -19 -137 -42 -3 -15 -15 -18 -61 -18 -73 0 -99 -8
-106 -31 -5 -15 -16 -19 -58 -19 -69 0 -95 -8 -102 -31 -5 -14 -16 -19 -43
-19 -70 0 -114 -12 -120 -32 -3 -14 -14 -18 -56 -18 -71 0 -96 -9 -107 -36 -8
-22 -14 -24 -77 -24 -60 0 -71 -3 -92 -25 -19 -21 -33 -25 -77 -25 -53 0 -113
-21 -113 -40 0 -6 -19 -10 -42 -10 -64 0 -115 -17 -121 -40 -5 -18 -14 -20
-76 -20 -66 0 -72 -2 -83 -25 -10 -22 -17 -25 -69 -25 -70 0 -89 -7 -89 -30 0
-15 -11 -18 -75 -22 -61 -3 -78 -7 -95 -26 -16 -17 -32 -22 -69 -22 -60 0
-108 -16 -122 -41 -8 -16 -21 -19 -74 -19 -61 0 -95 -14 -95 -41 0 -5 -27 -9
-61 -9 -65 0 -99 -12 -99 -35 0 -11 -13 -15 -54 -15 -70 0 -106 -14 -106 -40
0 -18 -6 -20 -74 -20 -66 0 -75 -2 -92 -25 -16 -22 -27 -25 -77 -25 -57 0
-117 -21 -117 -40 0 -6 -19 -10 -42 -10 -57 0 -115 -17 -122 -35 -3 -10 -19
-15 -44 -15 -68 0 -103 -11 -114 -36 -10 -21 -19 -24 -82 -26 -63 -3 -72 -6
-81 -25 -9 -21 -17 -23 -77 -23 -60 0 -71 -3 -90 -25 -17 -20 -31 -25 -69 -25
-53 0 -114 -22 -122 -45 -5 -11 -22 -15 -67 -15 -66 0 -100 -12 -100 -35 0
-12 -14 -15 -61 -15 -65 0 -99 -12 -99 -35 0 -11 -14 -15 -52 -16 -75 -1 -102
-11 -106 -37 -3 -20 -9 -22 -77 -22 -67 0 -74 -2 -89 -25 -15 -23 -23 -25 -87
-25 -61 0 -73 -3 -95 -25 -19 -19 -35 -25 -68 -25 -54 0 -106 -18 -106 -36 0
-10 -13 -14 -42 -14 -63 0 -116 -17 -123 -40 -5 -16 -17 -20 -78 -22 -64 -3
-73 -6 -82 -25 -9 -21 -17 -23 -77 -23 -60 0 -69 -3 -83 -24 -13 -20 -26 -24
-81 -28 -55 -3 -68 -8 -87 -30 -19 -22 -32 -26 -96 -30 -61 -3 -76 -8 -91 -26
-15 -18 -28 -22 -75 -22 -61 0 -95 -12 -95 -35 0 -12 -14 -15 -61 -15 -65 0
-99 -12 -99 -35 0 -11 -13 -15 -52 -15 -73 0 -98 -9 -108 -36 -8 -19 -18 -23
-57 -26 -41 -3 -48 -6 -51 -25 -3 -17 -10 -23 -28 -23 -17 0 -25 -7 -30 -25
-3 -13 -15 -27 -25 -30 -10 -4 -22 -17 -25 -31 -4 -14 -13 -24 -24 -24 -21 0
-30 -19 -30 -65 0 -27 -4 -34 -22 -37 l-23 -3 -3 -5315 c-1 -2923 0 -5335 3
-5359 5 -31 12 -45 26 -48 18 -5 19 -17 19 -230 l0 -224 25 -25 c24 -24 25
-28 25 -177 1 -150 14 -227 40 -235 6 -2 10 -54 11 -135 1 -152 6 -178 37
-192 20 -9 22 -17 24 -135 3 -119 4 -125 26 -135 21 -9 22 -15 22 -125 0 -119
3 -132 33 -143 14 -5 17 -19 17 -90 0 -94 13 -142 41 -158 16 -8 19 -21 19
-89 0 -86 11 -130 34 -130 11 0 15 -21 18 -96 3 -87 5 -98 26 -112 18 -12 22
-24 22 -68 0 -63 14 -104 35 -104 12 0 15 -13 15 -62 0 -82 15 -134 40 -141
17 -4 20 -15 22 -83 3 -73 5 -79 25 -82 20 -3 22 -10 25 -75 3 -64 6 -73 26
-82 18 -8 22 -18 22 -60 0 -70 9 -94 36 -101 21 -5 23 -12 26 -77 3 -64 6 -73
26 -82 19 -9 22 -17 22 -70 0 -64 5 -78 33 -88 12 -5 17 -17 17 -45 0 -53 18
-100 40 -107 15 -5 20 -18 22 -58 3 -45 6 -52 26 -55 20 -3 22 -9 22 -67 0
-61 14 -95 41 -95 5 0 9 -22 9 -49 0 -36 6 -54 23 -73 13 -14 27 -47 33 -74 6
-36 15 -52 31 -59 17 -7 23 -19 25 -55 2 -36 8 -47 26 -55 18 -8 22 -18 22
-56 0 -38 5 -50 25 -65 16 -12 25 -29 25 -45 0 -41 20 -88 41 -94 15 -5 19
-16 19 -51 0 -37 4 -46 25 -56 20 -9 25 -19 27 -57 3 -39 7 -46 25 -49 19 -3
22 -11 25 -50 2 -38 8 -49 26 -57 14 -6 22 -18 22 -35 0 -45 11 -69 34 -72 17
-2 22 -11 26 -53 4 -42 9 -50 27 -53 19 -3 22 -11 25 -50 2 -37 8 -49 24 -56
15 -7 24 -24 30 -55 7 -37 14 -47 32 -49 18 -3 22 -10 22 -40 0 -42 7 -56 33
-65 9 -3 17 -17 17 -29 0 -40 12 -67 31 -73 11 -4 19 -16 19 -29 0 -13 11 -35
25 -50 14 -15 25 -33 25 -41 0 -26 13 -47 36 -55 17 -7 23 -18 26 -47 2 -27 9
-41 25 -47 14 -7 23 -22 27 -47 3 -21 14 -44 24 -51 11 -7 22 -25 25 -40 5
-17 15 -28 30 -30 18 -2 23 -10 25 -46 3 -34 8 -45 26 -52 17 -6 25 -19 30
-50 5 -30 12 -43 26 -47 13 -4 20 -14 20 -29 0 -17 8 -27 24 -34 18 -7 25 -19
30 -54 6 -38 12 -47 32 -52 17 -4 24 -13 24 -30 0 -13 5 -24 11 -24 19 0 39
-28 39 -54 0 -24 23 -56 41 -56 5 0 9 -7 9 -16 0 -8 13 -29 30 -46 17 -17 30
-40 30 -54 0 -17 8 -27 25 -34 14 -5 25 -16 25 -25 0 -17 19 -54 36 -70 7 -5
14 -22 18 -37 4 -18 13 -28 25 -28 13 0 20 -10 24 -30 5 -24 12 -30 32 -30 19
0 25 -5 25 -22 0 -41 11 -66 31 -71 11 -3 19 -14 19 -26 0 -13 10 -26 25 -33
14 -6 25 -17 25 -25 0 -7 13 -25 30 -40 16 -14 30 -34 30 -44 0 -30 12 -49 30
-49 13 0 20 -9 22 -27 2 -20 9 -29 26 -31 15 -2 22 -10 22 -25 0 -12 9 -28 21
-35 11 -7 27 -29 35 -49 8 -19 24 -37 35 -40 12 -3 19 -14 19 -29 0 -17 7 -25
24 -30 15 -3 26 -14 28 -27 2 -14 11 -23 24 -25 15 -2 24 -12 28 -33 3 -16 16
-40 30 -52 13 -12 25 -31 27 -42 2 -11 14 -24 26 -30 12 -5 23 -19 25 -30 2
-12 12 -21 25 -23 17 -3 23 -10 23 -28 0 -17 7 -25 24 -30 14 -3 27 -15 30
-29 4 -14 15 -25 28 -27 17 -2 25 -13 31 -42 6 -23 17 -40 27 -43 10 -3 21
-16 24 -29 4 -14 17 -30 31 -36 13 -6 25 -20 27 -32 2 -13 12 -22 26 -24 16
-3 22 -10 22 -28 0 -19 5 -24 25 -24 20 0 25 -5 25 -25 0 -18 7 -26 24 -31 15
-3 27 -15 30 -30 4 -15 14 -24 26 -24 13 0 20 -7 20 -20 0 -13 10 -24 26 -30
14 -6 28 -19 31 -30 3 -10 16 -26 29 -35 13 -8 24 -20 24 -26 0 -10 46 -64 92
-108 16 -14 28 -31 28 -38 0 -6 9 -15 21 -18 11 -4 24 -18 29 -31 5 -13 16
-24 25 -24 9 0 20 -12 25 -26 6 -14 19 -28 30 -31 10 -3 20 -15 22 -27 2 -13
11 -22 25 -24 12 -2 23 -13 27 -26 3 -12 17 -28 31 -34 14 -6 25 -18 25 -27 0
-8 11 -17 24 -21 13 -3 26 -15 29 -26 3 -11 15 -22 26 -25 11 -3 23 -13 26
-24 3 -10 15 -21 26 -24 11 -4 24 -18 29 -31 5 -13 16 -24 25 -24 8 0 20 -11
26 -24 6 -13 20 -27 31 -29 11 -3 22 -15 25 -26 3 -12 11 -21 19 -21 7 0 21
-11 29 -24 9 -13 32 -32 50 -41 19 -8 39 -25 45 -35 6 -12 21 -20 35 -20 20 0
25 -5 25 -25 0 -18 7 -26 25 -31 16 -4 25 -13 25 -25 0 -11 9 -21 24 -25 13
-3 28 -16 35 -30 6 -13 19 -24 30 -24 13 0 21 -8 23 -23 2 -14 11 -23 25 -25
13 -2 24 -13 27 -28 4 -14 14 -24 25 -24 10 0 23 -11 29 -24 6 -13 20 -27 32
-31 11 -4 32 -17 45 -31 13 -13 36 -24 50 -24 20 0 25 -5 25 -25 0 -18 7 -26
24 -31 13 -3 28 -16 35 -30 6 -14 19 -24 31 -24 11 0 20 -7 20 -15 0 -8 13
-21 30 -30 16 -9 30 -22 30 -30 0 -8 14 -17 35 -21 23 -4 43 -17 56 -35 11
-16 29 -29 39 -29 12 0 20 -8 22 -23 2 -13 11 -23 23 -25 11 -2 25 -13 30 -25
6 -12 20 -23 32 -25 12 -2 25 -12 28 -23 4 -12 22 -24 50 -31 32 -9 45 -18 47
-32 2 -12 12 -22 23 -24 11 -2 25 -13 30 -25 6 -12 21 -24 34 -25 13 -2 26
-12 28 -22 4 -14 18 -21 49 -26 34 -5 44 -11 44 -25 0 -10 13 -25 29 -33 16
-9 31 -24 34 -36 3 -12 13 -20 26 -20 11 0 31 -11 45 -25 14 -14 37 -25 51
-25 17 0 25 -5 25 -18 0 -23 19 -42 42 -42 9 0 22 -9 28 -20 7 -12 25 -22 50
-26 30 -5 40 -12 44 -30 5 -17 13 -24 30 -24 15 0 27 -9 34 -25 10 -21 19 -25
51 -25 33 0 40 -4 43 -22 2 -13 15 -29 31 -36 15 -7 27 -19 27 -26 0 -17 22
-26 65 -26 27 0 34 -4 37 -22 2 -16 11 -24 29 -26 16 -2 31 -12 37 -27 8 -18
22 -26 51 -31 31 -5 41 -12 45 -30 6 -21 12 -24 50 -24 39 0 45 -3 48 -23 2
-15 11 -23 28 -25 15 -2 30 -12 35 -25 8 -17 20 -23 53 -25 32 -2 42 -7 42
-21 0 -25 20 -41 50 -41 15 0 37 -11 50 -25 13 -14 34 -25 46 -25 13 0 25 -8
29 -19 6 -19 32 -31 72 -31 15 0 23 -7 25 -23 2 -17 12 -24 49 -31 31 -6 48
-15 55 -30 7 -16 21 -22 54 -26 37 -4 46 -9 48 -28 3 -17 10 -22 32 -22 17 0
40 -10 56 -25 15 -14 38 -25 51 -25 16 0 27 -7 30 -19 5 -19 49 -41 81 -41 8
0 25 -11 38 -25 16 -18 34 -25 59 -25 24 0 35 -5 35 -15 0 -19 31 -35 68 -35
21 0 32 -7 40 -25 9 -18 22 -26 53 -31 28 -5 43 -13 46 -25 5 -19 32 -29 81
-29 22 0 32 -5 32 -15 0 -20 40 -35 91 -35 32 0 41 -4 51 -25 10 -22 18 -25
60 -25 41 0 48 -3 48 -20 0 -24 28 -40 74 -40 28 0 35 -4 38 -23 3 -19 10 -22
53 -25 41 -2 52 -7 60 -25 9 -19 19 -22 78 -25 58 -3 67 -5 67 -22 0 -25 29
-40 74 -40 20 0 36 -4 36 -9 0 -25 34 -41 86 -41 48 0 56 -3 66 -25 10 -22 18
-25 59 -25 42 0 48 -3 53 -25 6 -24 10 -25 81 -25 68 0 75 -2 75 -20 0 -27 30
-40 95 -40 50 0 56 -2 65 -25 8 -22 15 -25 61 -25 43 0 54 -4 71 -25 17 -22
27 -25 78 -25 49 0 58 -3 63 -20 7 -27 46 -40 117 -40 52 0 62 -3 76 -25 15
-23 22 -25 89 -25 69 0 73 -1 79 -25 6 -24 10 -25 81 -25 66 0 74 -2 80 -21 9
-27 44 -39 119 -39 53 0 67 -4 90 -25 24 -22 36 -25 104 -25 71 0 79 -2 96
-25 17 -23 25 -25 97 -25 63 0 79 -3 79 -15 0 -25 36 -35 134 -35 91 0 95 -1
114 -28 19 -26 25 -27 119 -30 54 -2 102 -8 108 -13 13 -13 675 -12 675 1 0 6
39 10 98 10 98 0 133 10 155 47 6 9 35 13 100 13 96 0 109 4 120 33 5 14 19
17 87 17 73 0 83 2 106 25 22 22 33 25 98 25 63 0 77 3 102 25 23 20 41 25 84
26 77 1 104 11 108 37 3 20 9 22 78 22 70 0 75 2 86 25 10 23 16 25 83 25 63
0 74 3 95 25 18 19 34 25 65 25 71 0 106 11 117 36 10 21 18 24 64 24 42 0 56
5 75 25 20 20 34 25 77 25 47 0 54 3 62 25 9 23 15 25 69 25 61 0 91 15 91 46
0 11 16 14 70 14 66 0 70 1 76 25 6 23 11 25 60 25 32 0 54 4 54 11 0 24 30
39 79 39 47 0 81 17 81 41 0 5 19 9 43 9 46 0 67 13 67 42 0 15 9 18 65 18 60
0 66 2 77 25 9 20 19 25 57 27 37 2 48 8 56 26 7 16 18 22 43 22 44 0 72 16
72 40 0 17 7 20 50 20 31 0 50 4 50 11 0 21 34 38 73 39 27 0 45 7 63 25 16
16 36 25 55 25 37 0 69 16 69 34 0 9 17 16 46 21 35 5 47 12 54 30 7 19 18 24
52 27 33 2 45 8 52 24 7 16 22 23 50 27 26 4 46 13 55 26 7 12 22 21 33 21 29
0 78 29 78 45 0 9 10 15 24 15 37 0 76 18 76 34 0 9 12 16 33 18 24 2 33 8 35
26 3 19 9 22 48 22 38 0 46 3 54 25 6 16 17 25 32 25 44 0 68 12 74 36 5 19
13 24 39 24 32 0 65 21 65 41 0 5 10 9 23 9 12 0 33 12 46 25 13 14 33 25 45
25 28 0 42 10 50 38 6 18 15 22 47 22 32 0 41 4 51 25 7 16 19 25 35 25 12 0
23 5 23 11 0 19 27 37 61 41 23 2 37 10 43 24 6 13 25 25 51 32 28 7 44 18 48
31 3 12 15 21 33 23 21 2 30 9 32 26 3 18 10 22 37 22 32 0 65 21 65 41 0 5 9
9 21 9 14 0 24 10 32 30 10 26 16 30 49 30 31 0 41 5 50 25 6 14 20 25 30 25
10 0 23 11 29 24 8 17 22 26 50 30 23 4 42 14 48 25 6 10 22 22 36 25 15 4 27
16 31 30 4 18 15 25 44 30 26 4 41 12 45 25 3 12 17 21 33 23 19 2 28 10 30
25 2 14 10 23 21 23 22 0 41 19 41 42 0 14 8 18 34 18 33 0 66 21 66 41 0 5 9
9 20 9 12 0 25 10 32 25 6 14 19 25 29 25 11 0 21 10 25 24 4 19 15 26 46 31
28 5 42 14 50 31 6 13 20 24 30 24 10 0 23 11 30 24 6 14 20 26 32 28 13 2 22
12 24 25 2 14 10 23 20 23 10 0 29 13 43 29 14 16 36 31 50 33 13 1 28 13 34
25 5 12 19 23 30 25 11 2 24 13 30 25 5 12 19 23 30 25 12 2 21 12 23 25 2 14
10 23 21 23 22 0 41 19 41 41 0 12 12 18 41 23 27 4 43 13 46 24 2 10 18 23
34 29 16 6 29 18 29 26 0 8 14 20 30 26 20 6 30 17 30 30 0 13 8 21 23 23 14
2 23 11 25 25 2 14 11 23 25 25 14 2 23 11 25 25 2 14 11 23 25 25 12 2 26 13
32 25 5 12 19 23 30 25 13 2 21 12 23 31 2 19 9 27 24 27 11 0 29 11 40 25 11
14 26 25 34 25 16 0 104 82 104 98 0 6 9 13 19 17 11 3 26 17 35 30 9 14 23
25 31 25 9 0 20 11 25 25 5 14 16 25 25 25 8 0 20 11 27 24 6 14 20 26 32 28
13 2 22 12 24 25 2 14 11 23 25 25 14 2 23 11 25 25 2 13 11 23 25 25 12 2 28
15 35 31 7 15 20 27 27 27 8 0 17 11 21 24 3 15 14 26 27 28 13 2 23 11 25 24
2 12 14 26 28 32 13 7 24 19 24 27 0 9 11 20 25 25 14 5 25 15 25 21 0 6 12
23 28 38 15 15 41 44 57 65 17 21 42 50 56 64 15 15 28 36 30 47 3 12 14 21
27 23 16 3 22 10 22 28 0 19 5 24 25 24 20 0 25 5 25 25 0 17 5 25 18 25 23 0
42 19 42 41 0 11 9 19 23 21 14 2 23 11 25 25 2 14 11 23 25 25 14 2 23 11 25
24 2 12 12 24 22 27 11 3 24 16 29 30 6 14 18 30 28 35 9 6 22 25 28 44 6 18
21 37 33 43 13 6 22 19 22 32 0 15 7 23 23 25 16 2 23 11 25 31 3 21 9 27 27
27 17 0 26 7 30 23 4 12 16 27 28 32 12 6 23 18 25 28 2 10 14 29 28 42 15 15
24 36 24 54 0 25 4 30 28 33 18 2 28 10 30 23 2 11 13 25 25 30 12 6 23 20 25
32 2 14 11 23 25 25 15 2 23 11 26 28 1 14 14 36 27 49 13 13 24 34 24 47 0
16 7 24 22 26 12 2 28 14 35 28 6 13 21 28 32 32 14 5 21 16 21 33 0 15 11 36
25 49 14 13 25 32 25 44 0 13 9 22 25 26 15 4 27 16 31 31 3 13 14 27 24 30
18 6 30 33 30 72 0 15 7 23 23 25 13 2 23 11 25 24 2 12 14 26 28 32 15 7 24
20 24 34 0 13 14 36 30 52 17 16 30 37 30 46 0 9 11 22 25 28 18 9 25 19 25
41 0 20 8 36 25 49 14 11 25 29 25 40 0 14 8 22 23 24 17 2 24 13 33 47 6 26
19 50 32 59 12 8 22 22 22 31 0 9 10 21 23 26 16 7 23 21 27 50 4 31 11 43 33
53 15 8 27 21 27 32 0 11 9 24 20 30 12 7 22 25 26 49 4 28 13 42 30 50 20 9
24 18 24 51 0 34 4 42 25 50 17 7 25 17 25 34 0 18 6 25 23 28 17 2 24 12 31
49 6 31 15 48 30 55 16 7 22 20 24 51 3 34 7 42 25 45 15 2 23 11 25 30 2 15
16 41 33 59 16 17 29 41 29 53 0 11 8 26 19 33 10 6 22 28 26 49 4 21 17 45
31 56 17 14 24 29 24 54 0 28 5 36 25 44 22 8 25 16 25 55 0 38 3 45 20 45 24
0 40 28 40 74 0 28 4 35 23 38 19 3 22 10 25 49 2 38 7 48 27 57 21 10 25 19
25 57 0 38 3 45 20 45 23 0 40 28 40 68 0 19 8 35 21 43 13 9 22 29 26 55 4
28 11 43 27 50 16 7 22 19 24 57 2 26 7 47 12 47 21 0 40 34 40 72 0 31 7 49
30 75 22 24 30 44 30 71 0 29 5 39 23 47 18 8 23 19 25 58 2 26 7 47 12 47 22
0 40 34 40 76 0 24 5 44 10 44 19 0 50 65 50 103 0 30 4 40 19 44 23 6 31 31
31 96 0 41 3 49 25 57 22 8 25 15 25 59 0 40 4 51 19 56 22 7 31 33 31 98 0
41 3 50 21 54 26 7 39 41 39 101 0 39 4 49 23 57 19 9 22 18 25 80 2 62 6 72
25 80 19 9 22 19 25 83 3 64 5 72 23 72 25 0 39 36 39 106 0 41 4 54 15 54 23
0 35 34 35 98 0 50 3 62 22 74 19 13 22 26 26 106 4 84 6 91 26 94 19 3 21 10
24 81 3 71 5 79 26 87 28 10 36 43 36 141 0 51 4 69 13 69 24 0 37 49 37 135
0 68 3 85 15 85 26 0 35 37 35 144 0 100 1 105 22 108 29 4 36 31 37 154 1 97
2 101 26 112 25 11 25 13 25 137 0 70 4 125 9 125 5 0 17 7 25 16 13 13 16 42
16 163 0 144 1 148 25 171 25 23 25 24 25 206 l0 182 24 6 c32 8 36 38 36 279
0 131 4 197 11 197 5 0 17 16 25 35 12 30 14 732 14 5359 l0 5326 -25 6 c-20
5 -25 13 -25 36 0 40 -17 68 -40 68 -15 0 -20 7 -20 25 0 18 -7 26 -24 31 -15
3 -26 14 -28 27 -2 14 -11 23 -25 25 -14 2 -23 10 -23 22 0 22 -19 30 -70 30
-32 0 -39 4 -42 22 -4 26 -31 36 -105 37 -39 1 -53 5 -53 16 0 23 -34 35 -97
35 -51 0 -60 3 -68 23 -9 19 -18 22 -82 25 -60 2 -73 6 -78 21 -7 23 -33 31
-107 31 -45 0 -58 3 -58 15 0 20 -63 45 -117 45 -34 0 -50 6 -69 25 -22 22
-34 25 -95 25 -65 0 -70 2 -79 25 -9 23 -14 25 -78 25 -63 0 -70 2 -80 24 -11
25 -46 36 -117 36 -33 0 -44 4 -48 18 -5 21 -44 32 -113 32 -33 0 -44 4 -44
15 0 22 -42 35 -109 35 -48 0 -61 4 -81 25 -21 22 -32 25 -97 25 -67 0 -73 2
-73 20 0 26 -36 40 -106 40 -41 0 -54 4 -54 15 0 23 -34 35 -99 35 -47 0 -61
3 -61 15 0 23 -34 35 -100 35 -52 0 -63 3 -67 19 -6 22 -62 41 -121 41 -30 0
-48 7 -68 25 -23 21 -36 25 -94 25 -62 0 -68 2 -78 25 -11 23 -16 25 -86 25
-69 0 -75 2 -78 22 -4 26 -31 36 -104 37 -41 1 -53 5 -56 19 -5 20 -50 32
-116 32 -23 0 -40 7 -52 22 -14 17 -31 23 -83 26 -53 3 -70 9 -88 28 -20 21
-31 24 -101 24 -71 0 -78 2 -78 20 0 28 -30 40 -97 40 -51 0 -60 3 -68 23 -9
19 -18 22 -80 25 -62 2 -72 6 -80 25 -9 19 -19 22 -82 25 -60 2 -73 6 -78 22
-7 23 -54 40 -112 40 -32 0 -54 7 -77 25 -28 21 -44 25 -100 25 -62 0 -67 2
-76 25 -9 23 -14 25 -80 25 -66 0 -71 2 -80 25 -9 24 -14 25 -84 25 -69 0 -75
2 -78 22 -4 26 -31 36 -105 37 -40 1 -53 5 -53 16 0 21 -41 35 -104 35 -43 0
-57 4 -76 25 -20 21 -32 25 -85 25 -55 0 -64 3 -90 30 -26 28 -34 30 -97 30
-53 0 -68 3 -68 15 0 23 -34 35 -99 35 -34 0 -61 4 -61 9 0 26 -34 41 -94 41
-57 0 -64 2 -74 25 -11 23 -16 25 -87 25 -61 0 -75 3 -75 16 0 21 -60 44 -114
44 -34 0 -52 6 -72 25 -24 22 -36 25 -100 25 -68 0 -73 2 -76 23 -3 20 -9 22
-80 25 -70 3 -77 5 -80 24 -4 26 -31 36 -105 37 -40 1 -53 5 -53 16 0 21 -41
35 -104 35 -44 0 -56 4 -68 22 -13 19 -26 23 -86 26 -58 3 -74 8 -93 28 -20
21 -31 24 -95 24 -67 0 -72 1 -78 24 -7 27 -30 36 -103 36 -29 0 -53 4 -53 9
0 27 -34 41 -96 41 -52 0 -66 3 -71 18 -10 27 -24 32 -95 32 -57 0 -68 3 -73
19 -7 24 -54 41 -111 41 -32 0 -50 6 -70 25 -23 22 -36 25 -98 25 -64 0 -72 2
-81 23 -9 19 -18 22 -80 25 -62 2 -72 6 -80 25 -9 19 -19 22 -80 25 -61 2 -72
6 -80 25 -11 25 -41 35 -106 36 -36 1 -50 6 -61 23 -12 18 -27 23 -82 26 -54
4 -72 9 -91 28 -21 21 -34 24 -95 24 -65 0 -71 2 -81 24 -13 28 -35 36 -107
36 -41 0 -54 4 -59 18 -10 27 -24 32 -95 32 -53 0 -68 3 -68 15 0 23 -34 35
-99 35 -47 0 -61 3 -61 15 0 23 -34 35 -99 35 -49 0 -61 3 -66 18 -6 22 -65
42 -123 42 -30 0 -46 6 -63 25 -21 22 -33 25 -94 25 -63 0 -71 2 -80 23 -9 19
-18 22 -82 25 -65 3 -72 5 -77 26 -6 26 -38 36 -112 36 -33 0 -44 4 -49 19 -7
23 -33 31 -107 31 -45 0 -58 3 -58 15 0 21 -41 35 -103 35 -42 0 -58 5 -79 25
-24 22 -36 25 -103 25 -72 0 -75 1 -75 24 0 28 -21 36 -100 36 -48 0 -57 3
-65 23 -9 19 -18 22 -82 25 -56 2 -73 6 -73 17 0 23 -568 22 -576 0z m440
-1140 c29 -14 66 -25 81 -25 15 0 51 -11 79 -24 28 -13 74 -27 101 -31 28 -4
57 -13 66 -21 9 -8 46 -21 83 -28 37 -8 78 -21 91 -30 13 -8 50 -20 83 -25 33
-5 74 -17 91 -26 18 -9 56 -20 87 -26 30 -6 69 -18 87 -29 18 -10 55 -21 82
-25 28 -4 64 -15 80 -25 17 -10 53 -21 80 -25 28 -4 64 -15 80 -25 17 -10 55
-23 86 -29 31 -5 74 -19 95 -29 21 -11 62 -23 89 -27 28 -4 64 -15 80 -25 17
-11 51 -22 75 -26 25 -4 62 -15 83 -26 21 -10 63 -24 95 -29 31 -6 68 -17 82
-24 14 -7 52 -18 85 -25 32 -7 68 -18 80 -26 11 -7 50 -20 86 -27 35 -7 76
-21 89 -30 14 -8 48 -19 75 -22 28 -4 64 -15 80 -25 17 -10 56 -23 87 -29 32
-6 71 -17 87 -26 17 -8 54 -20 83 -26 29 -6 69 -19 88 -29 19 -10 55 -21 80
-25 25 -4 61 -15 81 -25 19 -10 62 -23 95 -30 32 -6 68 -18 80 -25 11 -7 47
-18 79 -24 32 -6 68 -17 80 -25 12 -8 51 -20 86 -26 35 -6 78 -20 94 -30 17
-10 53 -21 80 -25 28 -4 64 -15 80 -25 17 -10 59 -24 95 -30 36 -6 72 -18 81
-26 9 -8 42 -19 75 -24 32 -6 75 -19 95 -30 19 -11 55 -22 80 -26 24 -4 67
-18 94 -31 28 -12 64 -23 80 -23 17 0 49 -9 70 -21 22 -11 65 -25 95 -30 30
-6 70 -19 90 -29 19 -10 60 -21 90 -25 30 -4 65 -16 78 -25 12 -10 46 -21 75
-25 28 -4 67 -15 84 -25 18 -11 60 -24 93 -30 33 -6 75 -19 93 -29 17 -11 55
-22 82 -26 28 -4 64 -15 80 -25 17 -10 55 -23 85 -29 30 -5 73 -19 95 -30 21
-12 52 -21 69 -21 16 0 52 -11 80 -24 28 -13 71 -27 96 -31 25 -4 63 -15 85
-25 22 -10 62 -22 90 -26 27 -4 63 -15 79 -25 17 -10 51 -21 76 -25 25 -4 62
-15 83 -26 20 -10 61 -23 89 -28 29 -6 70 -19 93 -29 22 -11 60 -22 85 -26 25
-4 59 -15 75 -25 17 -10 52 -22 80 -26 27 -4 72 -17 100 -30 27 -13 61 -24 74
-24 13 0 47 -11 75 -24 28 -13 71 -27 95 -31 24 -4 62 -15 85 -25 22 -10 64
-21 91 -25 28 -4 64 -15 80 -25 17 -11 51 -22 75 -26 25 -4 62 -15 83 -26 21
-10 63 -24 94 -29 31 -6 66 -17 77 -24 12 -8 46 -19 76 -25 30 -6 71 -20 91
-31 20 -10 59 -22 85 -26 27 -3 69 -17 93 -30 24 -12 58 -23 75 -23 18 0 50
-9 71 -21 22 -11 65 -25 95 -30 30 -6 69 -19 85 -29 17 -10 55 -22 85 -25 30
-4 65 -14 78 -22 13 -8 53 -20 88 -28 36 -7 76 -20 89 -29 13 -8 50 -20 82
-25 33 -5 77 -18 99 -29 21 -11 59 -23 84 -27 25 -4 59 -15 75 -25 17 -10 50
-21 75 -25 25 -4 62 -15 82 -25 20 -10 64 -24 97 -30 34 -6 76 -19 94 -29 17
-11 54 -22 80 -26 27 -3 63 -15 81 -26 18 -10 55 -22 82 -25 27 -4 66 -15 86
-26 21 -10 59 -21 85 -24 27 -4 62 -15 80 -26 17 -10 59 -23 92 -29 33 -5 75
-18 93 -28 18 -11 53 -22 78 -26 25 -4 55 -14 68 -22 13 -8 53 -21 90 -28 37
-8 85 -24 107 -35 21 -11 52 -20 69 -20 16 0 52 -11 80 -24 28 -13 72 -27 98
-31 28 -4 55 -16 67 -29 l21 -23 -2 -4679 c-3 -4363 -5 -4687 -21 -4794 -9
-63 -21 -227 -27 -365 -6 -167 -15 -268 -25 -305 -8 -30 -20 -134 -26 -230 -6
-98 -17 -193 -25 -215 -8 -22 -21 -103 -29 -180 -8 -77 -21 -158 -29 -180 -8
-23 -19 -90 -25 -150 -5 -61 -17 -126 -25 -146 -8 -20 -19 -79 -25 -132 -5
-52 -16 -109 -25 -125 -8 -16 -20 -72 -27 -123 -6 -52 -19 -110 -29 -129 -10
-19 -21 -64 -25 -100 -4 -36 -16 -85 -27 -110 -10 -25 -23 -78 -28 -117 -5
-40 -16 -83 -24 -95 -8 -13 -20 -54 -27 -93 -6 -38 -19 -84 -29 -100 -10 -17
-22 -55 -26 -85 -3 -30 -15 -69 -25 -85 -10 -17 -23 -61 -29 -99 -6 -37 -17
-77 -24 -89 -8 -12 -20 -49 -26 -82 -7 -33 -18 -67 -26 -76 -8 -9 -19 -41 -25
-73 -5 -31 -19 -71 -29 -89 -10 -18 -22 -50 -26 -72 -4 -22 -18 -60 -31 -84
-12 -24 -23 -55 -23 -69 0 -14 -11 -44 -24 -66 -13 -23 -27 -59 -30 -80 -4
-22 -16 -50 -26 -63 -10 -13 -21 -39 -24 -58 -4 -20 -18 -57 -32 -82 -13 -25
-24 -55 -24 -67 0 -12 -12 -39 -25 -61 -14 -22 -25 -47 -25 -56 0 -9 -11 -37
-24 -62 -14 -25 -28 -62 -31 -81 -4 -19 -15 -42 -26 -52 -10 -9 -22 -33 -25
-52 -4 -19 -17 -51 -30 -70 -13 -19 -24 -45 -24 -57 0 -12 -9 -34 -21 -49 -11
-14 -25 -43 -31 -64 -5 -20 -16 -44 -24 -52 -7 -9 -20 -35 -29 -59 -8 -23 -24
-54 -35 -68 -11 -14 -20 -33 -20 -42 0 -10 -11 -32 -25 -51 -14 -18 -28 -48
-31 -66 -3 -18 -12 -38 -20 -44 -7 -7 -18 -28 -25 -48 -6 -20 -17 -44 -25 -52
-7 -8 -22 -35 -34 -60 -22 -49 -42 -85 -76 -140 -12 -19 -25 -46 -29 -60 -4
-14 -18 -38 -31 -53 -13 -16 -24 -36 -24 -46 0 -10 -9 -26 -20 -36 -11 -10
-25 -35 -30 -57 -6 -21 -15 -38 -21 -38 -6 0 -20 -21 -31 -47 -11 -26 -27 -53
-34 -61 -8 -7 -14 -19 -14 -26 0 -7 -13 -30 -30 -51 -16 -21 -30 -42 -30 -47
0 -6 -11 -23 -25 -40 -14 -16 -25 -35 -25 -42 0 -8 -10 -26 -22 -41 -23 -29
-43 -63 -75 -125 -10 -19 -26 -44 -36 -55 -27 -30 -64 -86 -81 -123 -8 -17
-19 -32 -23 -32 -5 0 -19 -19 -32 -42 -43 -81 -56 -103 -74 -123 -29 -31 -66
-87 -78 -118 -6 -15 -15 -27 -20 -27 -8 0 -41 -45 -86 -118 -12 -19 -28 -39
-37 -44 -9 -5 -16 -14 -16 -20 0 -6 -12 -25 -27 -43 -16 -17 -37 -47 -48 -66
-39 -64 -42 -70 -58 -87 -9 -9 -26 -28 -39 -42 -13 -14 -31 -38 -41 -54 -10
-15 -25 -35 -33 -44 -44 -52 -74 -90 -74 -97 0 -4 -12 -20 -27 -35 -39 -41
-59 -65 -80 -97 -22 -34 -39 -55 -75 -93 -16 -15 -28 -33 -28 -39 0 -5 -7 -14
-15 -18 -8 -5 -57 -60 -109 -123 -52 -63 -118 -138 -146 -167 -27 -29 -50 -55
-50 -58 0 -3 -24 -30 -52 -60 -29 -29 -105 -108 -168 -176 -209 -223 -523
-532 -730 -719 -46 -41 -92 -84 -104 -96 -12 -11 -84 -74 -161 -138 -77 -65
-150 -128 -162 -140 -28 -26 -65 -56 -123 -101 -25 -19 -58 -45 -74 -57 -16
-13 -39 -33 -51 -45 -12 -13 -26 -23 -30 -23 -4 0 -22 -12 -41 -27 -18 -16
-51 -41 -74 -58 -23 -16 -53 -40 -68 -52 -83 -68 -164 -130 -193 -148 -18 -11
-41 -25 -51 -31 -10 -6 -29 -20 -41 -31 -12 -10 -34 -25 -49 -33 -16 -7 -28
-17 -28 -21 0 -5 -18 -18 -39 -29 -22 -10 -41 -23 -43 -27 -1 -5 -34 -29 -73
-55 -38 -26 -96 -66 -127 -88 -32 -22 -62 -40 -67 -40 -4 0 -15 -7 -22 -16 -8
-9 -32 -25 -54 -35 -22 -11 -60 -34 -85 -54 -25 -19 -63 -43 -85 -53 -22 -10
-46 -26 -54 -35 -7 -10 -19 -17 -26 -17 -7 0 -24 -11 -39 -25 -15 -14 -33 -25
-41 -25 -7 0 -26 -10 -42 -23 -15 -13 -42 -29 -60 -36 -17 -7 -39 -21 -49 -32
-9 -10 -25 -19 -34 -19 -9 0 -25 -9 -35 -20 -9 -10 -34 -24 -54 -31 -20 -6
-40 -17 -46 -24 -5 -6 -30 -22 -55 -34 -25 -12 -67 -35 -95 -51 -27 -16 -73
-40 -101 -53 -28 -14 -54 -29 -58 -35 -3 -6 -19 -13 -35 -17 -16 -3 -37 -15
-47 -26 -9 -10 -22 -19 -27 -19 -17 0 -174 -80 -187 -95 -7 -8 -20 -15 -29
-15 -9 0 -43 -14 -76 -30 -33 -16 -65 -30 -71 -30 -6 0 -22 -8 -35 -19 -14
-10 -41 -23 -62 -29 -20 -6 -49 -20 -63 -31 -15 -12 -34 -21 -44 -21 -9 0 -33
-11 -53 -24 -19 -13 -49 -27 -65 -31 -17 -3 -41 -14 -54 -24 -13 -10 -44 -23
-70 -31 -26 -7 -53 -18 -59 -26 -5 -7 -25 -16 -42 -19 -18 -4 -50 -17 -72 -30
-22 -12 -56 -26 -75 -30 -19 -4 -45 -14 -57 -22 -12 -8 -45 -21 -73 -28 -29
-8 -59 -20 -69 -28 -9 -8 -38 -20 -66 -26 -27 -7 -57 -19 -65 -26 -9 -8 -38
-19 -65 -25 -28 -6 -60 -17 -72 -25 -11 -8 -43 -20 -70 -26 -26 -6 -61 -20
-78 -29 -16 -10 -55 -23 -85 -29 -30 -7 -65 -19 -78 -27 -12 -8 -48 -19 -80
-25 -31 -6 -70 -19 -87 -29 -16 -10 -50 -21 -75 -24 -25 -4 -59 -15 -76 -25
-17 -10 -55 -22 -85 -26 -30 -4 -70 -15 -90 -25 -19 -10 -66 -23 -103 -28 -37
-6 -79 -18 -92 -26 -13 -9 -55 -20 -94 -26 -39 -6 -88 -18 -108 -29 -20 -10
-64 -22 -97 -26 -33 -4 -80 -15 -105 -26 -25 -10 -82 -23 -127 -28 -46 -6 -96
-17 -113 -26 -16 -8 -63 -20 -103 -25 -40 -5 -94 -15 -119 -21 -36 -10 -55
-10 -86 -1 -22 7 -74 17 -116 22 -42 5 -90 17 -106 25 -17 9 -67 20 -113 26
-45 5 -102 18 -127 28 -25 10 -70 22 -100 26 -30 4 -72 16 -92 26 -20 10 -69
23 -108 29 -39 6 -82 17 -95 26 -13 8 -56 20 -95 25 -40 6 -88 19 -108 29 -21
10 -59 21 -87 25 -27 4 -63 15 -80 25 -16 10 -52 21 -80 25 -27 4 -64 16 -81
26 -17 11 -53 22 -80 25 -27 4 -64 15 -83 26 -18 10 -56 24 -84 30 -28 6 -63
19 -77 28 -14 10 -42 21 -63 25 -21 3 -59 17 -84 31 -25 13 -55 24 -67 24 -12
0 -42 11 -68 25 -26 14 -57 25 -70 25 -13 0 -50 14 -83 30 -33 17 -65 30 -72
30 -6 0 -33 11 -59 25 -26 14 -57 25 -69 25 -12 0 -33 9 -47 19 -13 11 -38 23
-54 27 -16 3 -47 17 -69 29 -22 12 -56 26 -75 30 -19 4 -45 16 -58 26 -13 10
-37 21 -55 24 -18 4 -41 15 -52 25 -11 11 -40 23 -64 29 -25 5 -48 17 -53 25
-5 8 -27 20 -50 27 -23 6 -53 19 -66 30 -14 10 -30 19 -36 19 -6 0 -33 11 -61
25 -27 13 -66 31 -85 39 -19 9 -42 20 -50 25 -8 6 -28 17 -45 25 -16 9 -52 27
-80 41 -27 14 -66 34 -85 45 -19 11 -40 20 -46 20 -6 0 -19 9 -28 19 -10 11
-32 23 -50 27 -17 4 -44 17 -59 30 -16 13 -35 24 -42 24 -7 0 -26 11 -42 24
-15 13 -44 28 -65 35 -20 7 -39 18 -41 25 -3 7 -18 17 -33 20 -15 4 -41 18
-57 32 -16 13 -37 24 -47 24 -9 0 -24 7 -31 17 -8 9 -33 25 -56 35 -23 10 -45
23 -49 29 -3 6 -25 19 -48 30 -55 26 -117 64 -125 78 -4 5 -22 17 -41 26 -19
8 -55 31 -80 50 -25 19 -63 44 -85 55 -53 27 -109 62 -132 82 -10 8 -28 19
-40 22 -13 4 -23 11 -23 16 0 8 -114 90 -126 90 -6 0 -49 34 -97 75 -10 9 -33
23 -52 32 -19 9 -35 20 -35 25 0 5 -16 16 -35 25 -19 9 -35 20 -35 25 0 4 -17
16 -37 27 -21 10 -47 28 -57 40 -11 12 -24 21 -29 21 -5 0 -20 10 -33 23 -45
43 -164 137 -174 137 -5 0 -20 10 -34 22 -29 27 -53 46 -156 128 -112 89 -129
103 -158 131 -36 34 -142 122 -168 140 -21 14 -122 103 -230 204 -30 28 -91
84 -136 125 -118 109 -566 557 -688 689 -58 63 -126 136 -152 163 -27 27 -48
52 -48 56 0 3 -11 18 -25 32 -14 14 -56 61 -93 105 -81 97 -89 106 -152 174
-28 29 -50 55 -50 58 0 3 -12 20 -27 39 -16 18 -41 51 -58 74 -28 38 -61 78
-102 125 -10 11 -22 27 -28 36 -18 30 -91 123 -124 158 -17 18 -31 36 -31 40
0 5 -60 91 -89 127 -4 5 -14 20 -20 33 -7 12 -19 30 -27 39 -31 35 -84 113
-84 122 0 5 -11 17 -25 26 -14 9 -25 21 -25 26 0 6 -10 23 -22 38 -13 15 -32
42 -43 60 -27 45 -56 91 -79 126 -11 16 -32 49 -47 74 -16 25 -35 54 -43 65
-35 45 -67 91 -78 115 -7 14 -22 38 -32 53 -20 29 -38 61 -77 134 -13 24 -26
43 -31 43 -4 0 -16 19 -28 43 -11 23 -33 62 -50 87 -16 25 -38 63 -49 85 -10
22 -26 46 -35 54 -9 7 -16 21 -16 31 0 9 -11 34 -25 54 -14 21 -32 52 -41 69
-8 18 -28 55 -44 82 -16 28 -39 71 -51 98 -12 26 -25 47 -30 47 -4 0 -13 17
-19 38 -7 20 -20 46 -30 57 -10 11 -23 37 -29 57 -7 20 -19 42 -26 48 -8 7
-20 31 -26 53 -6 23 -19 52 -30 65 -10 14 -19 32 -19 42 0 9 -11 34 -25 54
-14 20 -28 49 -31 64 -4 15 -14 36 -24 47 -10 11 -23 38 -30 60 -7 22 -19 47
-26 56 -8 9 -21 38 -29 66 -8 28 -21 56 -29 62 -8 7 -17 30 -21 51 -4 22 -15
50 -25 62 -10 13 -23 41 -28 62 -6 21 -18 46 -26 55 -8 9 -21 40 -30 69 -8 28
-22 62 -30 74 -9 12 -16 32 -16 44 0 11 -11 41 -24 66 -13 25 -27 60 -31 79
-4 19 -18 52 -31 75 -13 22 -24 50 -24 61 0 11 -11 40 -23 64 -13 24 -27 62
-31 84 -4 22 -16 54 -26 70 -10 17 -23 53 -28 80 -6 28 -20 68 -32 90 -11 21
-20 51 -20 65 0 14 -10 43 -21 65 -12 22 -28 66 -35 98 -8 32 -20 68 -28 80
-7 12 -16 46 -19 75 -4 29 -15 72 -26 95 -11 23 -25 69 -31 101 -5 33 -17 70
-25 82 -8 12 -19 52 -25 88 -6 37 -19 83 -29 104 -11 20 -22 66 -26 101 -3 36
-15 81 -25 101 -10 20 -22 65 -25 101 -4 35 -16 84 -27 109 -11 25 -23 81 -28
125 -5 44 -18 105 -29 135 -10 30 -23 96 -29 145 -6 50 -17 104 -26 120 -8 17
-19 82 -25 145 -6 63 -17 135 -25 160 -8 25 -20 99 -25 166 -6 67 -18 141 -26
165 -10 27 -20 110 -26 216 -5 94 -16 195 -25 225 -9 33 -18 137 -24 273 -6
121 -15 267 -21 325 -6 58 -14 155 -19 215 -5 61 -9 2189 -9 4731 -1 3762 1
4623 12 4638 8 11 40 23 86 32 41 7 81 20 90 28 9 8 44 19 79 26 35 6 80 20
100 30 20 10 57 21 82 25 25 4 61 16 82 26 20 10 56 21 80 25 23 3 59 15 78
26 19 11 60 24 92 29 32 5 72 18 90 28 18 10 55 21 82 25 27 3 63 14 80 25 17
10 54 22 81 26 28 4 64 15 80 25 17 10 55 22 85 26 30 3 69 15 86 25 18 11 57
24 88 30 31 5 71 18 89 29 18 10 58 21 89 25 31 3 67 14 80 24 13 10 52 23 87
29 35 6 71 18 80 26 9 8 41 19 72 25 31 5 74 19 95 30 21 10 59 22 84 26 25 4
61 15 80 25 19 9 56 20 83 23 26 4 65 16 86 27 22 11 59 22 83 26 23 4 60 15
81 26 21 10 64 24 95 29 31 6 71 19 87 29 17 10 53 21 80 25 28 4 64 15 80 25
17 10 53 21 80 25 28 4 73 18 101 31 28 13 64 24 80 24 16 0 52 11 80 24 28
13 71 27 95 31 24 4 58 15 74 25 17 10 53 21 80 25 28 4 66 15 86 25 20 10 58
21 85 25 27 4 63 15 81 25 18 11 58 24 89 29 32 6 68 18 80 26 12 8 54 21 92
29 39 8 81 21 94 30 13 8 48 19 80 25 31 5 73 19 94 30 21 12 53 21 70 21 17
0 51 11 75 23 24 13 66 27 93 30 27 4 63 15 80 26 17 10 60 24 95 30 35 6 74
17 86 25 12 8 44 17 71 21 27 4 64 15 81 26 18 10 60 23 93 29 33 6 75 19 93
29 17 10 54 21 81 25 27 3 63 15 80 25 17 11 54 22 81 26 28 4 64 15 80 25 17
10 56 23 89 29 32 6 72 19 90 30 17 10 52 21 79 25 26 3 64 14 85 25 21 11 63
24 95 30 31 5 67 17 79 25 13 8 46 17 73 21 28 4 70 17 95 29 25 13 67 26 94
30 27 3 63 15 80 25 17 10 55 22 83 26 29 4 63 15 76 25 13 11 48 22 78 26 30
3 70 15 89 26 19 11 60 24 92 29 32 5 72 18 90 28 18 11 53 22 78 26 25 4 61
15 81 25 21 10 63 23 95 29 31 6 68 18 81 27 14 8 52 20 86 25 34 6 69 16 77
24 8 7 43 18 78 25 35 6 80 20 100 30 20 10 57 21 82 25 25 4 59 15 77 25 18
11 57 23 87 29 30 5 71 19 92 30 21 12 52 21 69 21 16 0 53 11 81 24 28 13 74
27 102 31 29 4 62 15 75 25 12 10 45 21 72 25 28 4 68 16 89 27 21 10 64 24
95 30 30 5 68 16 84 24 15 8 53 19 83 25 31 6 72 19 93 29 20 10 56 21 81 25
25 4 59 15 75 25 17 10 53 21 80 25 28 4 64 15 82 25 18 11 57 23 87 29 30 6
72 19 93 29 21 11 61 23 88 27 28 4 64 15 81 26 17 10 53 22 80 26 27 3 69 17
93 30 24 12 58 23 75 23 17 0 55 11 84 25 30 14 69 25 87 25 17 0 52 11 76 24
25 12 67 26 94 30 28 4 64 16 80 26 17 10 53 21 80 25 28 4 68 16 89 27 21 10
64 24 95 29 31 6 67 18 81 27 61 39 198 38 284 -3z"/>
<path d="M16205 26750 c-55 -9 -120 -27 -145 -38 -25 -12 -56 -22 -70 -22 -14
0 -44 -9 -65 -20 -22 -11 -70 -27 -107 -35 -37 -7 -77 -20 -90 -29 -13 -8 -45
-18 -73 -22 -27 -3 -66 -14 -85 -24 -19 -10 -55 -21 -80 -25 -25 -4 -61 -15
-80 -25 -19 -10 -62 -23 -95 -30 -32 -7 -69 -19 -80 -26 -12 -8 -48 -19 -81
-25 -32 -6 -72 -19 -89 -29 -16 -10 -51 -21 -76 -24 -25 -4 -61 -15 -81 -26
-19 -10 -61 -23 -93 -29 -32 -6 -68 -17 -80 -25 -12 -8 -50 -20 -85 -26 -35
-6 -74 -18 -87 -27 -13 -9 -53 -22 -90 -29 -36 -8 -72 -19 -78 -24 -6 -5 -44
-16 -83 -25 -40 -8 -82 -21 -95 -29 -12 -8 -48 -19 -79 -25 -32 -6 -68 -17
-81 -26 -13 -8 -50 -20 -83 -26 -32 -6 -72 -19 -89 -29 -16 -10 -52 -21 -80
-25 -27 -4 -64 -15 -80 -25 -17 -10 -58 -23 -91 -29 -33 -5 -75 -18 -94 -29
-19 -11 -57 -22 -84 -26 -27 -3 -63 -15 -80 -25 -17 -10 -51 -22 -76 -26 -25
-4 -62 -15 -82 -25 -20 -11 -61 -22 -90 -26 -29 -3 -66 -15 -83 -24 -16 -10
-57 -23 -89 -29 -33 -6 -70 -18 -83 -27 -14 -8 -52 -20 -86 -25 -34 -6 -75
-18 -92 -29 -16 -10 -50 -21 -75 -25 -25 -4 -61 -15 -81 -25 -21 -10 -63 -23
-95 -29 -31 -6 -67 -18 -80 -26 -12 -8 -52 -21 -88 -29 -37 -9 -76 -22 -89
-30 -12 -8 -44 -18 -72 -21 -27 -4 -65 -16 -83 -26 -18 -10 -60 -23 -93 -28
-34 -6 -71 -17 -84 -25 -12 -8 -48 -19 -80 -25 -32 -6 -69 -18 -82 -26 -13 -9
-49 -21 -80 -26 -32 -6 -73 -19 -93 -29 -19 -10 -55 -21 -80 -25 -25 -4 -61
-15 -81 -25 -21 -10 -62 -23 -93 -29 -30 -6 -66 -17 -79 -26 -13 -8 -50 -20
-83 -26 -32 -6 -72 -19 -89 -29 -16 -10 -52 -21 -80 -25 -27 -4 -65 -15 -85
-25 -19 -10 -59 -23 -88 -29 -29 -6 -65 -17 -80 -25 -15 -8 -54 -19 -86 -25
-33 -6 -70 -18 -82 -26 -12 -8 -54 -21 -92 -29 -39 -8 -81 -21 -94 -29 -13 -8
-43 -18 -68 -22 -25 -4 -61 -15 -81 -25 -21 -10 -63 -23 -95 -29 -31 -6 -68
-18 -81 -26 -13 -9 -49 -20 -81 -26 -31 -6 -70 -19 -87 -29 -16 -10 -52 -21
-80 -25 -27 -4 -66 -15 -86 -26 -21 -10 -57 -21 -81 -25 -23 -4 -59 -15 -79
-25 -20 -10 -65 -23 -99 -28 -35 -6 -70 -17 -80 -26 -10 -9 -46 -20 -81 -26
-35 -6 -77 -18 -94 -28 -16 -10 -52 -22 -80 -26 -27 -4 -63 -15 -80 -25 -16
-10 -57 -23 -89 -29 -33 -6 -70 -18 -83 -26 -13 -9 -49 -20 -81 -26 -31 -6
-70 -19 -87 -29 -16 -10 -52 -21 -80 -24 -27 -4 -66 -16 -86 -26 -21 -10 -63
-23 -95 -29 -31 -6 -68 -18 -81 -27 -14 -8 -52 -20 -86 -25 -34 -6 -75 -18
-92 -28 -16 -10 -45 -21 -63 -25 -19 -3 -47 -16 -63 -28 -15 -13 -46 -36 -67
-53 -21 -16 -51 -46 -67 -67 -17 -21 -40 -49 -52 -63 -13 -15 -23 -32 -23 -39
0 -7 -12 -35 -27 -62 l-28 -49 -3 -3710 c-3 -3750 1 -4227 33 -4405 8 -47 20
-164 25 -260 6 -108 18 -206 30 -255 11 -44 20 -101 20 -127 0 -63 19 -198 31
-221 6 -9 16 -73 24 -140 7 -67 21 -139 29 -159 9 -21 21 -81 26 -133 5 -52
17 -111 25 -131 8 -19 19 -71 24 -115 6 -43 18 -93 27 -111 9 -17 21 -66 26
-107 5 -42 17 -92 27 -111 10 -20 22 -60 26 -90 4 -30 16 -75 26 -99 10 -24
24 -73 30 -110 5 -36 17 -76 25 -89 8 -12 19 -48 25 -80 6 -31 19 -70 29 -87
10 -16 21 -50 25 -75 4 -25 15 -61 25 -80 9 -20 23 -60 29 -90 7 -30 18 -65
26 -77 9 -12 20 -46 26 -74 6 -29 20 -66 30 -83 10 -17 19 -40 19 -52 0 -12
11 -42 24 -67 14 -25 28 -63 31 -84 4 -21 16 -50 26 -65 11 -15 22 -42 26 -60
3 -18 16 -51 28 -73 13 -22 26 -54 30 -72 3 -18 14 -42 24 -55 10 -13 21 -36
25 -53 3 -16 17 -54 31 -82 14 -29 37 -79 51 -110 14 -32 37 -79 50 -106 13
-26 24 -53 24 -61 0 -7 11 -29 24 -49 13 -19 27 -48 30 -65 4 -16 18 -44 32
-63 13 -18 24 -41 24 -50 0 -10 11 -30 24 -46 13 -15 26 -42 30 -59 4 -18 16
-40 26 -49 10 -9 22 -30 25 -45 3 -15 17 -42 31 -61 13 -18 24 -39 24 -47 0
-8 10 -28 22 -44 11 -17 38 -65 60 -106 21 -42 42 -78 47 -81 4 -3 18 -26 30
-51 42 -85 66 -128 82 -146 9 -11 20 -29 23 -40 4 -12 15 -29 26 -39 11 -10
20 -24 20 -31 0 -7 11 -25 23 -41 13 -15 30 -39 38 -54 29 -52 55 -92 77 -119
12 -15 22 -35 22 -43 0 -9 10 -28 23 -44 13 -15 32 -41 42 -57 47 -68 71 -105
93 -139 13 -20 28 -37 33 -37 5 0 16 -15 24 -32 19 -41 57 -96 84 -124 12 -12
21 -26 21 -31 0 -5 9 -18 21 -29 12 -10 28 -32 36 -49 14 -26 85 -119 127
-165 7 -8 19 -26 26 -40 7 -14 68 -90 134 -170 67 -80 129 -156 138 -170 8
-14 35 -46 59 -72 24 -26 67 -73 94 -104 28 -31 70 -77 95 -103 25 -26 63 -69
84 -97 22 -27 51 -61 65 -75 14 -14 104 -105 200 -202 179 -182 379 -374 442
-424 20 -16 49 -42 66 -58 17 -17 54 -50 83 -75 28 -25 61 -54 73 -66 39 -37
162 -140 179 -150 9 -5 36 -26 60 -46 24 -20 77 -64 118 -98 41 -33 84 -69 95
-79 11 -10 31 -24 45 -31 14 -7 30 -19 35 -27 6 -8 20 -19 31 -26 19 -11 81
-55 187 -134 21 -15 46 -35 55 -44 9 -9 31 -24 47 -33 17 -9 50 -32 75 -51 25
-19 61 -43 81 -54 19 -11 41 -27 48 -35 8 -9 19 -16 26 -16 6 0 20 -9 31 -21
10 -12 35 -29 55 -39 19 -10 41 -26 48 -34 8 -9 20 -16 28 -16 8 0 28 -11 45
-25 16 -14 36 -25 43 -25 7 0 24 -9 37 -20 38 -33 91 -69 118 -80 14 -5 32
-15 40 -20 8 -6 28 -18 44 -28 16 -9 41 -27 56 -39 15 -13 35 -23 43 -23 9 0
28 -11 44 -24 15 -13 39 -27 53 -31 14 -4 34 -15 45 -25 11 -10 36 -25 55 -34
19 -10 58 -30 85 -45 76 -44 211 -111 222 -111 5 0 18 -9 27 -19 10 -11 31
-23 46 -26 15 -3 42 -17 61 -31 18 -13 40 -24 50 -24 9 0 28 -9 42 -20 14 -11
45 -27 68 -35 24 -9 50 -22 59 -29 8 -7 33 -19 55 -26 22 -7 47 -18 55 -25 8
-7 35 -18 60 -25 24 -7 55 -20 68 -30 12 -10 37 -22 55 -26 18 -3 43 -15 56
-25 13 -11 31 -19 40 -19 9 0 43 -14 76 -30 33 -16 67 -30 75 -30 8 0 35 -11
60 -24 25 -13 58 -26 74 -30 17 -4 41 -16 56 -26 14 -10 47 -21 73 -25 26 -4
57 -15 70 -25 12 -9 42 -22 67 -28 25 -6 63 -20 85 -32 21 -11 51 -20 65 -20
14 0 45 -11 70 -24 25 -13 65 -26 88 -30 24 -4 60 -15 80 -25 21 -10 57 -22
82 -26 25 -4 59 -15 75 -25 17 -10 59 -24 94 -30 35 -6 74 -18 87 -26 12 -9
52 -20 89 -25 36 -5 80 -16 96 -25 17 -8 63 -21 102 -29 40 -7 92 -21 117 -30
53 -20 237 -18 262 3 8 6 51 18 95 26 44 8 91 21 105 30 13 8 53 20 90 25 36
5 80 17 98 26 17 9 59 21 93 26 34 6 75 18 92 29 16 10 50 21 75 25 25 4 68
18 96 31 28 13 62 24 75 24 13 0 42 9 63 21 21 11 62 25 92 30 30 6 69 18 87
28 18 11 50 22 71 26 22 4 50 15 63 25 13 10 39 21 58 24 20 4 57 18 82 32 25
13 58 24 73 24 15 0 38 9 52 19 13 11 44 24 68 31 25 7 52 18 61 26 9 8 38 21
66 29 28 8 56 21 62 29 7 8 30 17 51 21 22 4 50 15 62 25 13 10 44 24 68 31
25 7 56 21 69 31 13 10 31 18 41 18 9 0 33 10 52 23 18 13 49 29 68 35 18 7
41 19 49 26 9 8 34 19 57 25 22 6 49 20 59 31 10 11 26 20 35 20 10 0 33 11
52 24 20 13 52 29 72 36 19 6 39 16 42 22 3 5 25 19 48 30 65 31 122 62 137
74 8 6 31 17 51 23 21 7 41 18 45 25 5 7 28 23 53 35 25 12 66 34 91 49 26 15
65 37 86 49 22 12 45 29 52 37 8 9 19 16 26 16 7 0 28 12 48 28 20 15 59 41
87 57 29 17 65 40 80 53 15 12 33 22 39 22 11 0 101 57 130 82 8 7 29 22 47
33 38 24 95 63 149 104 22 17 57 40 78 51 20 11 37 24 37 28 0 5 16 16 35 25
19 9 35 21 35 25 0 5 10 13 23 19 35 16 107 84 136 127 74 113 92 158 100 249
11 136 -3 240 -40 315 -18 34 -48 75 -67 90 -19 15 -55 47 -81 70 -144 135
-392 168 -578 76 -39 -19 -77 -41 -83 -49 -7 -8 -18 -15 -25 -15 -7 0 -19 -7
-26 -16 -7 -9 -51 -41 -98 -72 -110 -74 -114 -77 -216 -147 -107 -74 -159
-108 -205 -135 -19 -11 -55 -34 -80 -50 -25 -16 -65 -41 -90 -55 -25 -14 -65
-39 -90 -55 -25 -16 -63 -39 -85 -51 -39 -20 -74 -39 -186 -106 -30 -17 -99
-54 -154 -82 -55 -29 -107 -56 -115 -61 -8 -4 -73 -36 -145 -70 -71 -34 -137
-66 -145 -71 -8 -5 -31 -16 -50 -24 -65 -28 -133 -60 -188 -87 -29 -16 -59
-28 -66 -28 -6 0 -38 -14 -71 -30 -33 -16 -67 -30 -75 -30 -9 0 -26 -7 -39
-16 -12 -9 -48 -25 -79 -35 -97 -30 -192 -67 -205 -77 -7 -6 -35 -16 -62 -23
-28 -6 -60 -17 -71 -25 -12 -7 -50 -20 -84 -29 -34 -9 -72 -22 -84 -30 -11 -7
-45 -18 -74 -24 -29 -6 -63 -17 -75 -25 -12 -8 -51 -21 -87 -29 -36 -8 -85
-22 -110 -31 -187 -65 -249 -79 -337 -74 -57 3 -100 11 -121 22 -18 9 -68 24
-109 32 -42 8 -81 18 -87 23 -6 5 -45 18 -86 29 -88 24 -187 56 -250 82 -25
10 -65 23 -90 29 -25 6 -63 19 -85 31 -21 11 -46 20 -55 20 -8 0 -35 11 -60
24 -25 13 -61 27 -80 31 -19 4 -51 16 -70 26 -19 11 -44 19 -55 19 -11 0 -47
14 -80 30 -33 16 -67 30 -76 30 -9 0 -27 9 -41 19 -13 11 -42 24 -63 30 -22 6
-53 20 -70 31 -16 11 -36 20 -44 20 -13 0 -118 46 -166 72 -33 19 -249 123
-315 152 -8 4 -42 22 -75 41 -33 18 -100 54 -150 80 -49 25 -115 62 -145 81
-30 18 -71 41 -90 50 -19 9 -43 23 -52 31 -9 8 -30 22 -47 31 -106 58 -207
116 -211 122 -3 4 -34 25 -70 48 -36 23 -78 50 -95 62 -16 12 -57 39 -90 60
-33 22 -78 53 -100 69 -22 17 -56 39 -75 50 -19 11 -62 40 -95 65 -33 25 -78
57 -99 73 -22 15 -67 51 -102 78 -34 28 -87 67 -116 88 -29 21 -73 56 -98 78
-50 43 -144 119 -203 163 -22 16 -76 63 -120 106 -45 43 -120 110 -167 150
-105 89 -497 476 -593 585 -39 44 -102 115 -141 158 -39 43 -87 96 -106 117
-19 21 -66 78 -105 125 -38 47 -104 127 -145 178 -95 116 -211 268 -298 390
-66 93 -79 113 -102 147 -14 21 -61 90 -105 155 -117 171 -191 288 -208 329
-4 10 -18 32 -32 48 -14 16 -25 35 -25 42 0 7 -9 22 -19 33 -11 12 -27 36 -36
54 -9 19 -29 57 -45 84 -17 28 -39 69 -50 92 -11 23 -25 45 -31 49 -5 3 -21
29 -35 57 -35 73 -54 110 -65 127 -5 8 -16 31 -25 50 -21 50 -32 73 -44 90 -5
8 -16 31 -25 50 -8 19 -22 46 -29 60 -8 14 -28 57 -46 95 -17 39 -36 78 -41
88 -5 9 -13 25 -18 35 -22 42 -62 131 -75 170 -9 24 -22 53 -31 65 -8 12 -15
28 -15 37 0 9 -9 34 -21 55 -20 39 -35 76 -79 200 -12 33 -30 78 -41 101 -10
22 -19 47 -19 55 0 8 -9 33 -20 54 -12 22 -26 60 -32 85 -6 25 -16 55 -24 66
-7 12 -20 50 -29 85 -9 35 -23 75 -31 91 -8 15 -19 51 -25 80 -6 29 -19 69
-29 88 -10 19 -21 55 -25 80 -4 25 -15 64 -25 86 -10 23 -21 61 -25 85 -4 24
-18 79 -31 122 -13 43 -24 89 -24 103 0 13 -9 50 -20 82 -11 31 -25 89 -31
127 -6 39 -17 85 -25 104 -8 19 -21 80 -29 135 -8 56 -21 119 -29 142 -8 23
-17 72 -21 110 -4 38 -15 106 -26 152 -10 45 -23 132 -29 192 -6 61 -17 142
-25 180 -8 39 -22 163 -30 277 -9 115 -20 244 -26 288 -24 190 -28 796 -29
3983 0 3748 -6 3422 68 3441 94 23 189 51 277 83 104 37 280 88 300 88 12 0
38 9 59 19 21 11 60 24 87 30 28 6 63 18 79 26 16 8 53 20 82 26 29 6 73 19
98 29 64 26 164 58 245 80 80 22 177 53 250 80 28 11 64 22 80 26 17 3 62 17
102 30 39 13 82 24 95 24 13 0 39 8 58 19 19 10 59 23 88 30 29 6 66 17 81 25
15 8 58 22 96 31 38 8 73 20 79 24 6 5 45 18 86 29 41 11 95 27 120 36 76 26
142 47 210 65 36 10 79 25 95 33 17 9 54 21 83 27 30 6 63 16 75 23 12 6 56
20 97 29 41 9 95 24 120 33 82 28 144 48 215 67 39 10 79 24 90 30 11 7 49 20
85 30 36 9 88 25 115 34 28 8 95 30 150 46 55 17 118 38 140 46 22 8 69 23
105 33 36 10 85 25 110 34 25 8 83 27 130 40 47 14 108 33 135 41 28 9 79 25
115 34 36 10 79 25 95 33 17 9 54 21 83 27 29 6 65 17 80 25 15 7 54 19 87 26
33 7 71 18 85 25 14 8 55 21 90 30 36 9 70 21 75 25 6 5 44 17 85 28 41 11 96
27 123 36 120 40 146 48 212 65 39 10 80 23 92 29 12 7 45 17 75 23 29 6 69
20 88 29 20 10 62 23 95 29 32 6 68 17 80 25 12 8 47 19 78 25 31 5 73 19 94
29 21 11 58 23 83 27 25 4 61 15 80 25 19 10 62 23 95 30 32 7 68 18 80 25 11
7 47 19 79 25 33 7 76 20 95 30 20 10 56 21 81 25 25 4 57 13 71 21 14 7 56
20 94 29 38 8 73 20 79 24 6 5 45 18 86 29 41 11 95 27 120 36 25 8 68 23 95
31 28 9 86 28 130 42 44 15 103 26 130 26 53 0 184 -33 225 -57 14 -8 51 -19
82 -25 32 -5 71 -17 87 -25 16 -9 51 -20 77 -26 27 -6 69 -19 94 -29 25 -11
63 -23 85 -26 22 -4 56 -16 75 -25 20 -10 58 -21 85 -26 27 -4 72 -17 100 -30
27 -13 60 -24 73 -24 12 0 48 -11 80 -24 31 -13 77 -27 102 -31 25 -4 59 -14
75 -23 17 -8 59 -23 95 -33 36 -9 86 -24 113 -33 26 -9 68 -23 95 -32 26 -9
76 -24 112 -35 74 -21 173 -52 240 -75 25 -9 79 -25 120 -36 41 -11 79 -23 85
-28 5 -4 37 -13 70 -20 33 -7 73 -19 88 -27 16 -8 59 -23 95 -33 67 -18 127
-37 212 -66 25 -8 78 -24 117 -34 40 -11 86 -26 102 -35 17 -8 38 -15 48 -15
10 -1 36 -8 58 -16 22 -9 76 -26 120 -39 44 -13 100 -30 125 -39 25 -8 86 -27
135 -42 50 -14 113 -35 140 -45 28 -10 77 -25 110 -32 33 -8 74 -21 90 -29 17
-9 54 -21 83 -27 29 -6 65 -17 80 -25 15 -7 52 -19 82 -25 30 -6 78 -20 105
-31 66 -25 133 -47 230 -75 86 -25 154 -47 225 -71 25 -8 74 -24 110 -34 36
-10 85 -25 110 -34 67 -23 167 -54 240 -75 36 -11 86 -26 113 -35 26 -9 68
-23 95 -32 26 -9 76 -24 112 -35 36 -10 90 -27 120 -38 30 -11 63 -20 73 -21
10 0 38 -9 63 -20 24 -11 67 -25 94 -30 28 -5 63 -16 78 -24 16 -8 59 -22 96
-30 37 -9 79 -22 94 -30 15 -7 47 -16 70 -20 24 -4 60 -15 80 -25 21 -10 55
-21 77 -25 22 -3 69 -17 105 -30 131 -47 166 -58 225 -73 33 -8 80 -23 105
-33 25 -11 69 -24 99 -30 30 -6 60 -15 67 -21 7 -6 44 -19 81 -29 37 -10 88
-26 113 -34 25 -8 83 -26 130 -40 47 -14 114 -34 150 -46 36 -12 89 -27 118
-35 29 -7 76 -22 105 -33 29 -11 71 -25 94 -31 23 -7 49 -19 58 -27 14 -14 15
-366 12 -3657 -2 -3341 -4 -3652 -19 -3762 -9 -66 -22 -194 -28 -285 -6 -91
-17 -193 -25 -228 -8 -34 -20 -115 -25 -180 -6 -64 -20 -151 -30 -192 -10 -41
-21 -106 -25 -145 -3 -38 -15 -99 -25 -135 -10 -36 -24 -103 -30 -150 -6 -46
-18 -100 -26 -119 -8 -20 -19 -69 -25 -110 -6 -41 -19 -95 -28 -120 -10 -25
-22 -68 -26 -96 -4 -27 -15 -72 -25 -100 -11 -27 -24 -79 -30 -115 -7 -35 -17
-74 -23 -85 -6 -11 -18 -51 -28 -90 -10 -38 -24 -90 -33 -115 -8 -25 -23 -67
-32 -95 -43 -134 -83 -248 -116 -330 -11 -27 -24 -68 -29 -90 -6 -22 -18 -53
-28 -70 -11 -16 -22 -45 -26 -64 -4 -19 -18 -54 -31 -79 -13 -25 -24 -52 -24
-61 0 -9 -12 -38 -25 -66 -14 -27 -25 -56 -25 -62 0 -7 -11 -34 -24 -60 -55
-109 -86 -179 -86 -194 0 -9 -9 -28 -20 -42 -11 -14 -20 -29 -20 -33 0 -9 -65
-149 -81 -174 -5 -8 -16 -31 -24 -50 -9 -19 -22 -46 -30 -60 -8 -14 -31 -59
-51 -100 -19 -41 -48 -100 -62 -130 -26 -52 -27 -63 -27 -205 l1 -150 34 -65
c58 -109 111 -173 175 -214 17 -11 33 -25 38 -32 4 -7 38 -28 74 -46 66 -32
70 -33 200 -33 118 0 135 3 160 21 16 12 43 25 61 29 18 4 45 18 59 31 14 13
29 24 33 24 12 0 130 123 130 135 0 7 9 20 20 30 10 9 24 34 31 54 6 20 20 45
29 56 10 11 22 34 26 50 4 17 18 43 31 58 12 16 23 36 23 46 0 9 11 32 24 50
13 18 27 47 30 66 4 18 13 38 21 45 8 7 20 31 26 54 6 22 19 50 29 61 10 11
21 34 25 52 3 18 15 43 25 55 10 13 23 44 30 68 7 24 20 55 30 67 10 13 21 40
25 60 3 21 15 47 25 58 10 11 21 36 25 55 4 19 15 49 25 65 10 17 24 50 30 75
7 25 18 52 26 61 7 8 17 31 20 50 4 19 17 52 29 74 12 22 26 60 30 85 4 25 15
59 25 75 10 17 21 48 25 70 4 22 15 54 25 70 10 17 23 55 29 85 7 30 19 65 27
78 8 12 19 47 25 78 6 30 18 69 29 87 10 18 21 54 25 82 4 27 15 66 26 86 10
20 23 65 28 99 6 34 17 73 25 86 9 12 21 55 27 95 6 40 19 88 29 108 10 20 21
65 25 101 4 36 15 85 25 110 10 25 21 76 25 115 4 38 15 90 25 116 10 25 23
86 29 135 5 49 17 106 26 127 8 21 20 86 26 145 5 59 18 134 28 167 10 33 22
110 26 170 3 61 11 127 16 148 5 20 13 54 18 75 6 20 15 120 20 222 6 102 19
219 28 260 16 70 17 349 20 4084 3 3910 3 4010 -16 4041 -10 17 -24 48 -30 67
-6 20 -21 44 -31 53 -11 10 -20 23 -20 30 0 15 -126 135 -141 135 -6 0 -24 11
-41 25 -16 14 -39 25 -50 25 -11 0 -35 9 -53 20 -18 11 -54 23 -81 26 -27 4
-63 15 -81 25 -18 10 -56 22 -86 28 -30 5 -72 19 -93 29 -21 11 -61 23 -89 27
-27 4 -63 15 -80 25 -16 10 -56 23 -87 29 -32 6 -68 17 -81 26 -13 8 -50 20
-81 26 -32 6 -74 19 -95 29 -20 10 -58 22 -86 26 -27 4 -69 18 -94 30 -24 13
-58 24 -75 24 -17 0 -53 12 -81 25 -27 14 -63 25 -78 25 -15 0 -53 11 -85 24
-31 13 -77 26 -102 30 -24 4 -58 15 -75 26 -16 10 -52 21 -80 25 -27 4 -64 16
-81 26 -17 11 -53 22 -80 25 -27 4 -65 15 -84 26 -19 11 -60 24 -92 29 -32 5
-72 18 -90 28 -18 11 -53 22 -78 26 -25 4 -61 15 -81 25 -21 10 -62 23 -93 29
-30 6 -66 17 -79 26 -14 8 -53 21 -88 27 -35 6 -73 17 -85 24 -11 8 -46 19
-78 25 -31 5 -71 18 -89 29 -18 10 -54 21 -81 25 -27 4 -65 15 -84 25 -20 11
-56 22 -81 26 -25 4 -68 17 -96 30 -27 13 -61 24 -74 24 -13 0 -47 11 -75 24
-28 13 -73 27 -101 31 -27 4 -64 15 -81 26 -17 10 -53 22 -80 26 -27 3 -69 17
-93 30 -24 12 -58 23 -75 23 -17 0 -53 11 -81 25 -27 13 -66 25 -85 25 -19 0
-55 11 -80 24 -25 13 -66 26 -93 29 -26 4 -64 15 -85 26 -21 11 -64 24 -96 30
-33 6 -67 18 -76 26 -10 9 -45 20 -78 26 -34 5 -76 18 -94 28 -18 10 -55 22
-83 26 -27 4 -63 15 -80 25 -16 10 -52 22 -80 26 -27 4 -69 18 -94 30 -24 13
-57 24 -74 24 -17 0 -53 11 -81 24 -28 13 -76 27 -106 31 -30 4 -62 14 -71 21
-9 8 -47 20 -86 28 -38 7 -80 20 -93 29 -14 8 -50 20 -80 26 -30 5 -73 19 -95
30 -21 12 -53 21 -71 21 -17 0 -51 11 -75 24 -25 12 -67 26 -94 30 -28 4 -63
16 -80 26 -16 10 -57 23 -89 29 -33 6 -70 18 -83 27 -14 8 -52 20 -86 25 -34
6 -75 19 -92 29 -16 10 -52 21 -80 25 -27 4 -66 16 -85 25 -20 10 -58 21 -85
25 -28 4 -63 15 -80 25 -16 10 -56 23 -87 29 -32 6 -68 17 -81 26 -13 8 -50
20 -81 26 -32 6 -74 19 -95 29 -20 10 -56 21 -81 25 -25 4 -59 16 -76 26 -17
10 -53 22 -80 25 -27 4 -66 15 -87 26 -21 10 -63 23 -93 29 -30 6 -69 18 -87
28 -18 10 -52 22 -75 25 -24 4 -60 15 -80 25 -21 10 -59 21 -87 25 -27 3 -66
15 -86 25 -20 11 -62 24 -93 30 -30 6 -66 17 -80 26 -13 9 -52 20 -86 26 -34
5 -73 17 -87 26 -21 14 -226 55 -258 52 -5 -1 -55 -9 -110 -19z"/>
<path d="M18920 20643 c-73 -25 -150 -59 -173 -77 -68 -50 -282 -262 -1772
-1753 -908 -909 -1583 -1576 -1599 -1583 -29 -11 -33 -6 -710 669 -375 374
-697 692 -716 708 -86 72 -225 123 -332 123 -61 0 -204 -35 -238 -58 -14 -10
-38 -24 -55 -32 -32 -15 -1747 -1719 -1872 -1860 -48 -54 -89 -112 -112 -160
l-36 -75 0 -140 c0 -138 1 -141 34 -210 18 -38 36 -72 40 -75 3 -3 18 -21 33
-41 32 -44 3542 -3554 3618 -3619 109 -92 226 -127 390 -115 95 7 175 39 265
105 65 49 5506 5489 5556 5556 20 28 52 82 70 120 32 67 33 73 33 199 1 122
-1 134 -26 187 -16 31 -28 59 -28 62 0 32 -203 243 -983 1022 -502 501 -938
930 -969 952 -31 23 -76 49 -100 58 -24 9 -59 22 -78 29 -34 14 -208 19 -240
8z m628 -1795 c439 -438 492 -495 492 -522 -1 -28 -248 -278 -2323 -2353
-1501 -1501 -2331 -2324 -2348 -2328 -23 -6 -144 113 -1375 1343 -742 742
-1362 1363 -1377 1380 l-28 29 23 34 c13 19 240 251 506 516 436 436 484 481
507 475 15 -4 313 -295 727 -708 769 -766 752 -751 893 -774 123 -20 283 -6
335 29 14 10 41 24 60 31 25 9 521 499 1691 1667 910 910 1662 1659 1670 1664
8 5 23 9 35 9 14 0 178 -158 512 -492z"/>
<path d="M21619 10200 c-87 -33 -148 -72 -209 -132 -48 -48 -120 -154 -120
-177 -1 -9 -9 -41 -20 -71 -11 -30 -19 -82 -20 -116 0 -81 47 -226 94 -290 20
-27 49 -68 64 -91 38 -55 73 -83 157 -123 70 -33 71 -34 215 -34 137 1 148 2
201 27 31 15 61 27 67 27 30 0 198 172 213 219 6 20 18 43 26 52 8 9 19 59 25
113 15 134 0 260 -41 342 -38 75 -113 154 -172 183 -24 12 -55 28 -69 35 -76
43 -147 61 -240 63 -84 2 -104 -1 -171 -27z"/>
</g>
</svg>
